<svg width="32" height="32" viewBox="0 0 32 32" fill="none" xmlns="http://www.w3.org/2000/svg">
<path d="M25.3879 25.3877H21.4368V19.2C21.4368 17.7245 21.4104 15.8251 19.3818 15.8251C17.3239 15.8251 17.009 17.4327 17.009 19.0926V25.3873H13.0578V12.6629H16.8509V14.4018H16.904C17.2836 13.7528 17.8322 13.2188 18.4912 12.8569C19.1503 12.4949 19.8952 12.3185 20.6465 12.3464C24.6512 12.3464 25.3896 14.9805 25.3896 18.4073L25.3879 25.3877ZM8.59959 10.9235C8.1461 10.9236 7.70275 10.7892 7.32564 10.5373C6.94852 10.2855 6.65459 9.92741 6.48097 9.50847C6.30735 9.08953 6.26185 8.62851 6.35024 8.18371C6.43864 7.73891 6.65695 7.33032 6.97756 7.00959C7.29817 6.68886 7.70669 6.47041 8.15146 6.38186C8.59623 6.29331 9.05725 6.33863 9.47626 6.5121C9.89526 6.68557 10.2534 6.97939 10.5054 7.35641C10.7575 7.73344 10.892 8.17673 10.8921 8.63022C10.8921 8.93133 10.8329 9.2295 10.7177 9.50771C10.6025 9.78592 10.4337 10.0387 10.2208 10.2517C10.0079 10.4646 9.75518 10.6336 9.47701 10.7488C9.19884 10.8641 8.9007 10.9235 8.59959 10.9235ZM10.5752 25.3877H6.61989V12.6629H10.5752V25.3877ZM27.3578 2.66848H4.63444C4.11868 2.66266 3.62169 2.86184 3.25272 3.22225C2.88374 3.58266 2.67297 4.07481 2.66667 4.59056V27.4082C2.67275 27.9242 2.8834 28.4166 3.25236 28.7774C3.62133 29.1382 4.11843 29.3378 4.63444 29.3323H27.3578C27.8748 29.3388 28.3733 29.1398 28.7437 28.779C29.1141 28.4182 29.3262 27.9252 29.3333 27.4082V4.58892C29.326 4.07214 29.1138 3.57943 28.7433 3.21903C28.3729 2.85863 27.8745 2.66002 27.3578 2.66684" fill="#F2F2F2"/>
</svg>
