<svg width="32" height="32" viewBox="0 0 32 32" fill="none" xmlns="http://www.w3.org/2000/svg">
<path d="M28.9695 8.1284C28.0087 8.55433 26.9831 8.84274 25.8944 8.97262C27.0101 8.30287 27.8449 7.2509 28.2437 6.01212C27.1935 6.63722 26.0433 7.07659 24.8439 7.31092C20.5081 3.01341 14.3961 7.47136 15.714 12.2005C11.2637 11.9771 7.31004 9.85122 4.67423 6.60422C3.15769 9.18272 4.14516 12.3533 6.33212 13.7476C5.45351 13.7201 4.62839 13.4783 3.90641 13.0772C3.90565 13.0998 3.90565 13.1221 3.90565 13.1444C3.90565 15.742 5.75262 17.9003 8.20315 18.3969C7.36848 18.6032 6.5701 18.6357 5.77745 18.4886C6.45932 20.6087 8.43235 22.1558 10.7817 22.2131C8.41325 24.0124 5.66285 24.7534 2.85515 24.4287C14.9455 31.5339 26.3482 22.2322 26.31 11.5935C26.3099 11.363 26.3048 11.1324 26.2949 10.9021C27.3416 10.1457 28.2431 9.2022 28.9689 8.1326" fill="#F2F2F2"/>
</svg>
