<svg width="24" height="24" viewBox="0 0 24 24" fill="none" xmlns="http://www.w3.org/2000/svg">
<path d="M17.523 13.9233C16.972 13.9233 16.5237 13.4747 16.5237 12.9236C16.5237 12.3726 16.972 11.9243 17.523 11.9243C18.0741 11.9243 18.5224 12.3726 18.5224 12.9236C18.5224 13.4747 18.0741 13.9233 17.523 13.9233ZM6.47696 13.9233C5.92588 13.9233 5.47764 13.4747 5.47764 12.9236C5.47764 12.3726 5.92588 11.9243 6.47696 11.9243C7.02802 11.9243 7.47628 12.3726 7.47628 12.9236C7.47628 13.4747 7.02802 13.9233 6.47696 13.9233ZM17.8815 7.90334L19.8788 4.44414C19.9933 4.24531 19.9252 3.99135 19.7267 3.87653C19.5282 3.76203 19.2739 3.83014 19.1591 4.02865L17.1367 7.53163C15.5902 6.82585 13.8533 6.43274 12 6.43274C10.1467 6.43274 8.40976 6.82585 6.86326 7.53163L4.84093 4.02865C4.72611 3.83014 4.47182 3.76203 4.27332 3.87653C4.07482 3.99135 4.00638 4.24531 4.1212 4.44414L6.11854 7.90334C2.68886 9.76868 0.343158 13.2409 0 17.3429H24C23.6565 13.2409 21.3108 9.76868 17.8815 7.90334Z" fill="#F2F2F2"/>
</svg>
