<svg width="24" height="24" viewBox="0 0 24 24" fill="none" xmlns="http://www.w3.org/2000/svg">
<path d="M8.97472 3V18.8607L12.8946 20V6.69383C12.8946 6.09418 13.1951 5.65644 13.6851 5.80035C14.3384 5.96226 14.4494 6.53792 14.4494 7.16155V12.4744C16.8862 13.5538 18.807 12.4744 18.807 9.62011C18.807 6.76578 17.6702 5.39859 14.371 4.3552C12.6032 3.80541 10.8012 3.35287 8.97472 3Z" fill="#F2F2F2"/>
<path d="M13.6265 17.6788L19.9113 15.6221C20.6234 15.3882 20.7345 15.0584 20.1596 14.8785C19.3812 14.7181 18.5698 14.7575 17.8142 14.9924L13.6265 16.3476V14.1949L13.8617 14.1169C14.8088 13.8349 15.7853 13.644 16.7755 13.5473C18.6112 13.3775 20.4651 13.5822 22.2044 14.1469C24.0468 14.6866 24.2558 15.4721 23.7854 16.0118C23.3266 16.4259 22.7763 16.7449 22.1718 16.9473L13.6265 19.7536V17.6788Z" fill="#F2F2F2"/>
<path d="M0.456002 15.3642C-0.406341 15.9519 -0.0927615 16.9713 1.80183 17.463H1.82143C3.76361 18.0524 5.83174 18.2046 7.85143 17.9067L8.23688 17.8468V15.9819L6.27696 16.6235C5.52489 16.8642 4.71374 16.9037 3.93814 16.7374C3.36323 16.5635 3.46774 16.2337 4.17987 15.9939L8.21729 14.6746V12.5939L2.61192 14.3928C1.85066 14.6299 1.126 14.9564 0.456002 15.3642Z" fill="#F2F2F2"/>
</svg>
