<svg width="24" height="24" viewBox="0 0 24 24" fill="none" xmlns="http://www.w3.org/2000/svg">
<path d="M11.9827 2C6.72076 2 2.40989 6.05049 2 11.198L7.36907 13.4141C7.82401 13.1035 8.37357 12.9217 8.96482 12.9217C9.0178 12.9217 9.07058 12.9233 9.12291 12.9262L11.5105 9.47141L11.5103 9.42259C11.5103 7.34309 13.2048 5.65129 15.2881 5.65129C17.3712 5.65129 19.0657 7.34309 19.0657 9.42259C19.0657 11.5021 17.3712 13.1942 15.2881 13.1942C15.2614 13.1942 15.2349 13.1935 15.2084 13.1929L15.2023 13.1928L11.797 15.6184C11.7988 15.6627 11.8004 15.7075 11.8004 15.7522C11.8004 17.3134 10.5284 18.5831 8.96482 18.5831C7.59233 18.5831 6.44473 17.605 6.18474 16.3101L2.3451 14.7253C3.53395 18.9229 7.3969 22 11.9827 22C17.5153 22 22 17.5227 22 12.0001C22 6.47703 17.5153 2 11.9827 2Z" fill="#F2F2F2"/>
<path d="M8.27708 17.1494L7.04655 16.6419C7.2646 17.0951 7.64187 17.4744 8.14279 17.6831C9.22566 18.1334 10.4741 17.6205 10.9254 16.5388C11.1439 16.0155 11.1453 15.4379 10.9285 14.9134C10.7123 14.3887 10.3042 13.9796 9.77951 13.7612C9.25892 13.5449 8.70121 13.553 8.21116 13.7375L9.48223 14.2621C10.2809 14.5945 10.6586 15.51 10.3257 16.3073C9.99332 17.1046 9.07572 17.4817 8.27708 17.1494Z" fill="#F2F2F2"/>
<path fill-rule="evenodd" clip-rule="evenodd" d="M15.292 6.92431C16.6801 6.92431 17.8092 8.05165 17.8092 9.43714C17.8092 10.8229 16.6801 11.9498 15.292 11.9498C13.9041 11.9498 12.7748 10.8229 12.7748 9.43714C12.7748 8.05165 13.9041 6.92431 15.292 6.92431ZM15.2963 7.5453C14.2519 7.5453 13.4053 8.39031 13.4053 9.43285C13.4053 10.4754 14.2519 11.3205 15.2963 11.3205C16.3407 11.3205 17.1873 10.4754 17.1873 9.43285C17.1873 8.39031 16.3407 7.5453 15.2963 7.5453Z" fill="#F2F2F2"/>
</svg>
