<svg width="24" height="24" viewBox="0 0 24 24" fill="none" xmlns="http://www.w3.org/2000/svg">
<path d="M22 8.25735C22 8.01812 22 7.77969 21.9984 7.54045C21.9968 7.33937 21.9952 7.13829 21.9897 6.93721C21.9777 6.49849 21.9523 6.05659 21.8744 5.62343C21.7957 5.18391 21.6662 4.7746 21.4627 4.37482C21.2632 3.9822 21.0017 3.62295 20.6902 3.3114C20.3786 2.99984 20.0194 2.73836 19.6268 2.53887C19.227 2.3354 18.8177 2.20664 18.3782 2.12717C17.945 2.04928 17.5031 2.02384 17.0652 2.01192C16.8641 2.00636 16.663 2.00397 16.4619 2.00318C16.2529 2 16.0439 2 15.834 2C15.8046 2 15.7744 2 15.745 2H13.0022H10.9978H8.25497C8.2192 2 8.18344 2 8.14767 2C7.945 2 7.74154 2 7.53807 2.00159C7.33699 2.00238 7.13591 2.00477 6.93483 2.01033C6.4969 2.02225 6.055 2.04848 5.62105 2.12637C5.18153 2.20505 4.77221 2.33381 4.37323 2.53728C3.98061 2.73756 3.62136 2.99825 3.30981 3.3106C2.99825 3.62216 2.73756 3.9814 2.53728 4.37403C2.33381 4.7738 2.20505 5.18312 2.12558 5.62343C2.04769 6.05659 2.02225 6.49849 2.01033 6.93642C2.00477 7.1375 2.00238 7.33858 2.00159 7.53966C2 7.77969 2 8.01812 2 8.25735V11.0017V12.999V15.7434C2 15.9827 2 16.2211 2.00159 16.4603C2.00318 16.6614 2.00477 16.8625 2.01033 17.0644C2.02225 17.5031 2.04769 17.945 2.12558 18.3782C2.20426 18.8177 2.33381 19.227 2.53728 19.6268C2.73677 20.0194 2.99825 20.3786 3.30981 20.6902C3.62136 21.0017 3.98061 21.2632 4.37323 21.4627C4.77301 21.6662 5.18232 21.7957 5.62184 21.8744C6.055 21.9523 6.4969 21.9777 6.93483 21.9897C7.13591 21.9952 7.33699 21.9976 7.53807 21.9984C7.7471 22 7.95533 22 8.16436 22C8.19456 22 8.22397 22 8.25417 22H10.997H13.0014H15.7442C15.7784 22 15.8118 22 15.846 22C16.051 22 16.2561 22 16.4603 21.9984C16.6614 21.9968 16.8625 21.9952 17.0636 21.9897C17.5015 21.9777 17.9442 21.9523 18.3774 21.8744C18.8169 21.7957 19.2262 21.6662 19.6252 21.4627C20.0178 21.2624 20.377 21.0017 20.6886 20.6902C21.0002 20.3786 21.2608 20.0194 21.4611 19.6268C21.6646 19.227 21.7934 18.8177 21.8728 18.3774C21.9507 17.9442 21.9762 17.5023 21.9881 17.0636C21.9936 16.8625 21.996 16.6614 21.9968 16.4595C21.9984 16.2203 21.9984 15.9819 21.9984 15.7426V12.9983V11.001L22 8.25735ZM8.16198 8.48863C8.41949 8.17708 8.86298 7.95533 9.22699 7.93705C9.2715 8.36385 9.103 8.78112 8.85424 9.09188C8.59673 9.39469 8.18821 9.63472 7.77969 9.59895C7.72643 9.19043 7.93069 8.75489 8.16198 8.48863ZM10.2324 14.2508C9.93117 14.6943 9.62121 15.1283 9.12526 15.137C8.6468 15.1458 8.48784 14.8533 7.93864 14.8533C7.38945 14.8533 7.21221 15.1283 6.76077 15.1458C6.28231 15.1632 5.91989 14.676 5.61866 14.2333C4.99873 13.3384 4.52901 11.7083 5.16722 10.6091C5.47719 10.0599 6.04387 9.71419 6.65506 9.70545C7.12478 9.69671 7.55873 10.0154 7.84168 10.0154C8.12542 10.0154 8.62931 9.64346 9.22302 9.67843C9.45351 9.69592 10.1172 9.76745 10.5424 10.3961C10.5066 10.4231 9.75393 10.8571 9.76347 11.7695C9.77221 12.8592 10.7196 13.2224 10.7283 13.2311C10.7188 13.2581 10.5773 13.7461 10.2324 14.2508ZM13.9687 10.8372H13.0014V13.6683C13.0014 14.1062 13.1938 14.3089 13.6174 14.3089C13.7231 14.3089 13.8964 14.2945 13.9639 14.285V15.0838C13.8479 15.1076 13.6174 15.1275 13.3909 15.1275C12.3894 15.1275 12 14.7428 12 13.77V10.838H11.2585V10.0432H12V8.83914H13.0014V10.0424H13.9687V10.8372ZM17.3561 15.0869H16.2934L14.506 10.0432H15.5638L16.8172 14.0966H16.841L18.0944 10.0432H19.1332L17.3561 15.0869Z" fill="#F2F2F2"/>
</svg>
