<svg width="24" height="24" viewBox="0 0 24 24" fill="none" xmlns="http://www.w3.org/2000/svg">
<path d="M12.3217 3V7.15561C13.4464 7.13972 14.5665 7.00767 15.6641 6.76135C14.9048 4.63546 13.6982 3.19595 12.3217 3Z" fill="#F2F2F2"/>
<path d="M16.4995 11.6776H12.3217V7.80027C13.5147 7.78453 14.7028 7.64257 15.8661 7.37673C16.27 8.77516 16.4831 10.2219 16.4995 11.6776Z" fill="#F2F2F2"/>
<path d="M21 12.3223H17.1428C17.1282 13.8314 16.9097 15.3315 16.4933 16.7819C17.3425 17.0091 18.1619 17.3359 18.9348 17.7553C20.2036 16.223 20.9299 14.3124 21 12.3223Z" fill="#F2F2F2"/>
<path d="M15.6641 17.2387C14.9048 19.3645 13.6982 20.8041 12.3217 21V16.8444C13.4464 16.8601 14.5665 16.9923 15.6641 17.2387Z" fill="#F2F2F2"/>
<path d="M14.7635 20.5885C14.6831 20.6146 14.6021 20.6384 14.5207 20.662C14.4979 20.6687 14.4751 20.6757 14.4521 20.6826C14.4075 20.6962 14.3626 20.7098 14.3171 20.7226C14.3041 20.7259 14.2911 20.729 14.278 20.7321C14.265 20.7352 14.252 20.7382 14.2389 20.7416C15.1911 19.8152 15.8978 18.6653 16.2949 17.3964C17.0584 17.5982 17.7975 17.8832 18.4991 18.2463C18.4975 18.248 18.496 18.2496 18.4944 18.2512L18.4926 18.2532C18.49 18.2561 18.4874 18.2589 18.4848 18.2617C18.4817 18.2652 18.4786 18.2687 18.4755 18.272C18.474 18.2736 18.4725 18.2752 18.471 18.2767C18.4341 18.3149 18.3963 18.3521 18.3585 18.3892L18.3376 18.4098L18.3274 18.4198L18.2951 18.4517C18.2422 18.5039 18.1891 18.5563 18.1349 18.6071C18.0918 18.6473 18.0477 18.6864 18.0036 18.7255L17.9456 18.7771C17.8921 18.8247 17.8389 18.8721 17.7836 18.9181C17.7319 18.9612 17.6796 19.003 17.6271 19.045L17.6268 19.0452L17.6266 19.0454L17.6265 19.0455L17.6127 19.0564C17.5482 19.108 17.4822 19.1595 17.4178 19.2092C17.3594 19.2524 17.2998 19.2952 17.24 19.3381C17.1734 19.3858 17.1065 19.4335 17.0386 19.4793C16.9778 19.5206 16.9163 19.5605 16.8545 19.5999C16.7856 19.6429 16.7162 19.6858 16.6464 19.7288C16.5837 19.7666 16.5217 19.8032 16.4573 19.8398C16.3861 19.8804 16.3145 19.9199 16.2424 19.9586C16.178 19.9931 16.1138 20.0266 16.0494 20.0595C15.976 20.0966 15.902 20.1323 15.8277 20.1674C15.7621 20.1981 15.6964 20.2287 15.6303 20.2578C15.5665 20.285 15.5021 20.312 15.4376 20.3392L15.4014 20.3544L15.3949 20.3571L15.3938 20.3575C15.3299 20.3835 15.2661 20.4096 15.2018 20.4341C15.1232 20.464 15.0444 20.4921 14.9652 20.5195L14.9509 20.5246L14.9507 20.5246L14.9505 20.5247C14.8885 20.5464 14.8264 20.5682 14.7635 20.5885Z" fill="#F2F2F2"/>
<path d="M15.8661 16.6234C14.7028 16.3575 13.5147 16.2156 12.3217 16.1997V12.3223H16.4995C16.4831 13.778 16.27 15.2249 15.8661 16.6234Z" fill="#F2F2F2"/>
<path d="M18.9348 6.24465C18.1619 6.6641 17.3425 6.99084 16.4933 7.21812C16.9097 8.66848 17.1282 10.1686 17.1428 11.6777H21C20.9298 9.68775 20.2035 7.77717 18.9348 6.24465Z" fill="#F2F2F2"/>
<path d="M18.4831 5.7374C18.4887 5.7436 18.4943 5.7498 18.5001 5.7557C17.7978 6.11943 17.0576 6.40463 16.2933 6.6064C15.8961 5.33735 15.1895 4.18761 14.2373 3.2612C14.2489 3.26419 14.2604 3.26693 14.272 3.26967C14.2866 3.27313 14.3013 3.27661 14.3157 3.28056C14.3772 3.29684 14.4382 3.31481 14.499 3.3327L14.5176 3.33816C14.6002 3.36209 14.6806 3.38585 14.761 3.41198C14.8289 3.43402 14.8958 3.45747 14.9627 3.48108C15.0419 3.50846 15.1211 3.53648 15.1991 3.56638C15.266 3.59188 15.332 3.61864 15.3983 3.64571C15.4237 3.65639 15.4492 3.66688 15.4746 3.67737C15.526 3.69855 15.5773 3.71971 15.6283 3.74235C15.6945 3.77146 15.7599 3.80137 15.8243 3.83206C15.9008 3.86747 15.9754 3.90352 16.0494 3.94098C16.0816 3.95711 16.1137 3.97395 16.1459 3.99079C16.1781 4.00763 16.2102 4.02447 16.2424 4.0406C16.3151 4.07964 16.3872 4.11961 16.4592 4.16085C16.522 4.19658 16.5847 4.23341 16.6467 4.27071C16.7176 4.31321 16.787 4.35712 16.8566 4.40198C16.9177 4.44085 16.9788 4.48051 17.039 4.52112C17.1074 4.56724 17.175 4.61556 17.2422 4.66403C17.3014 4.70653 17.3603 4.74902 17.4185 4.79294C17.4847 4.84283 17.5507 4.89477 17.6151 4.94702L17.6395 4.9665C17.688 5.00517 17.7367 5.04399 17.7843 5.08427C17.8414 5.13198 17.8972 5.18157 17.9528 5.23103L17.9731 5.24906C17.9951 5.269 18.0171 5.28853 18.0391 5.30799L18.0392 5.30809L18.0393 5.30819C18.0719 5.33705 18.1044 5.36577 18.1361 5.39543C18.1883 5.44399 18.2391 5.49425 18.2896 5.54438L18.3169 5.5714C18.331 5.58524 18.345 5.59904 18.3592 5.61286L18.3595 5.61317C18.3974 5.6503 18.4354 5.68758 18.4724 5.7258C18.476 5.72959 18.4795 5.73344 18.483 5.7373L18.4831 5.7374Z" fill="#F2F2F2"/>
<path d="M3 11.6777H6.85716C6.87177 10.1686 7.09026 8.66848 7.50652 7.21812C6.65752 6.991 5.83805 6.66425 5.06524 6.24465C3.79638 7.77701 3.07006 9.68775 3 11.6777Z" fill="#F2F2F2"/>
<path d="M11.6783 16.8444V21C10.3019 20.8041 9.09507 19.3645 8.33592 17.2387C9.43357 16.9923 10.5537 16.8603 11.6783 16.8444Z" fill="#F2F2F2"/>
<path d="M11.6783 12.3223H7.50051C7.51685 13.778 7.72984 15.2249 8.13384 16.6234C9.29715 16.3574 10.4851 16.2154 11.6783 16.1997V12.3223Z" fill="#F2F2F2"/>
<path d="M8.33592 6.76135C9.09507 4.63546 10.3019 3.19595 11.6783 3V7.15561C10.5537 7.13987 9.43357 7.00782 8.33592 6.76135Z" fill="#F2F2F2"/>
<path d="M11.6783 7.80027C10.4853 7.78453 9.29715 7.64257 8.13384 7.37673C7.72984 8.77516 7.51685 10.2219 7.50051 11.6776H11.6783V7.80027Z" fill="#F2F2F2"/>
<path d="M9.72094 3.27033C9.73398 3.26726 9.74702 3.26419 9.76006 3.26081C8.80833 4.18674 8.10212 5.33586 7.70503 6.60412C6.94148 6.40235 6.20228 6.11731 5.50078 5.75405C5.50625 5.74848 5.51147 5.74266 5.51664 5.7369C5.52067 5.73241 5.52468 5.72795 5.52873 5.72367C5.56511 5.68599 5.60246 5.64934 5.63973 5.61276C5.6546 5.59817 5.66946 5.58359 5.68424 5.56896L5.70987 5.54365C5.76101 5.49315 5.81221 5.44258 5.86456 5.39362C5.90315 5.35711 5.94263 5.32221 5.98219 5.28725L5.9823 5.28715C5.99776 5.27348 6.01327 5.25978 6.02871 5.24599L6.05622 5.22153C6.10892 5.17463 6.16139 5.12794 6.21626 5.08262C6.26241 5.04352 6.30974 5.0057 6.35702 4.96793L6.387 4.94396C6.41327 4.92356 6.43899 4.90314 6.46458 4.88283C6.50354 4.85191 6.54221 4.8212 6.58193 4.79129C6.64052 4.748 6.70005 4.70519 6.7599 4.66222C6.8265 4.61454 6.89341 4.56685 6.96127 4.52104C7.02206 4.47981 7.08348 4.43983 7.14536 4.40017L7.17138 4.38385C7.23157 4.34609 7.2921 4.30812 7.35318 4.27126C7.41522 4.23349 7.47852 4.1965 7.54292 4.16046C7.61392 4.11985 7.68539 4.08019 7.75749 4.04147C7.82173 4.00716 7.88614 3.97348 7.95054 3.94058C8.02389 3.90344 8.09787 3.86771 8.17217 3.83261C8.23783 3.80192 8.30333 3.77139 8.36962 3.74227C8.4317 3.71589 8.49452 3.6894 8.55738 3.66289L8.59832 3.64563C8.66492 3.61825 8.73121 3.59149 8.79843 3.56568C8.86953 3.53868 8.9414 3.51325 9.01323 3.48784L9.03389 3.48053L9.0501 3.47487C9.11193 3.45329 9.17384 3.43168 9.23668 3.41128C9.31773 3.38546 9.39784 3.3617 9.47857 3.33809C9.49618 3.33298 9.51375 3.32784 9.5313 3.32269C9.58139 3.30801 9.63135 3.29337 9.68183 3.27985C9.69487 3.27647 9.70791 3.2734 9.72094 3.27033Z" fill="#F2F2F2"/>
<path d="M5.70423 18.4499L5.71654 18.462C5.76511 18.5101 5.81374 18.5582 5.86361 18.6048C5.8954 18.6343 5.92775 18.6629 5.96028 18.6917C5.98241 18.7113 6.00463 18.731 6.02682 18.751L6.03439 18.7578C6.09423 18.8111 6.15413 18.8645 6.21562 18.9158C6.27044 18.9619 6.32632 19.0065 6.38238 19.0511L6.3826 19.0513L6.38479 19.0531C6.44919 19.1053 6.51344 19.1573 6.58161 19.2075C6.61962 19.2361 6.65804 19.264 6.6966 19.2921C6.71681 19.3069 6.73712 19.3216 6.75738 19.3365C6.8246 19.3849 6.89246 19.4332 6.96095 19.4796C7.02111 19.5202 7.08221 19.5599 7.14331 19.5989C7.2129 19.6436 7.28233 19.6875 7.35317 19.73C7.41521 19.7675 7.47788 19.8041 7.54072 19.84C7.61266 19.8813 7.68475 19.9212 7.75748 19.9601C7.78913 19.976 7.82082 19.9926 7.85252 20.0092C7.88515 20.0263 7.91788 20.0434 7.95053 20.0597C8.02451 20.0972 8.09912 20.1333 8.17562 20.1688C8.24002 20.1992 8.30536 20.2291 8.37165 20.2584C8.42356 20.2814 8.47577 20.303 8.52812 20.3245L8.52838 20.3247C8.55276 20.3347 8.57718 20.3448 8.60161 20.355C8.66789 20.3821 8.73387 20.4088 8.80078 20.4343C8.87885 20.4644 8.95801 20.4924 9.03718 20.5198L9.05139 20.5248C9.11355 20.5466 9.17583 20.5684 9.23887 20.5887C9.31929 20.6149 9.39971 20.6388 9.48233 20.6626L9.50254 20.6685C9.56278 20.6862 9.62327 20.704 9.68402 20.7203C9.69842 20.7242 9.71291 20.7277 9.7274 20.7311C9.73913 20.7339 9.75089 20.7367 9.76256 20.7397C8.81036 19.8131 8.10383 18.6634 7.70659 17.3943C6.94304 17.5963 6.20384 17.8813 5.50234 18.2447C5.5077 18.2502 5.5129 18.2559 5.51813 18.2616C5.52209 18.266 5.52608 18.2703 5.53014 18.2746C5.57824 18.3267 5.63008 18.3773 5.6824 18.4283L5.68282 18.4287C5.68996 18.4357 5.6971 18.4428 5.70423 18.4499Z" fill="#F2F2F2"/>
<path d="M7.50652 16.7819C6.65752 17.0091 5.83805 17.3359 5.06524 17.7553C3.79638 16.2228 3.07021 14.3122 3 12.3223H6.85716C6.87177 13.8314 7.09026 15.3315 7.50652 16.7819Z" fill="#F2F2F2"/>
</svg>
