<svg width="24" height="24" viewBox="0 0 24 24" fill="none" xmlns="http://www.w3.org/2000/svg">
<path d="M12.0406 10.0366C12.031 10.0286 12.0195 10.0233 12.0071 10.0214C11.9948 10.0233 11.9832 10.0286 11.9737 10.0366C8.99644 12.3102 3.86007 17.9394 5.42014 19.529C7.24438 21.1221 9.58466 22 12.0071 22C14.4296 22 16.7698 21.1221 18.5941 19.529C20.1541 17.9394 15.033 12.3102 12.0406 10.0366Z" fill="#F2F2F2"/>
<path d="M11.9949 2C13.8337 2 15.6371 2.50587 17.2073 3.46218C17.2147 3.45814 17.2231 3.45653 17.2314 3.45759C17.2397 3.45865 17.2475 3.46231 17.2536 3.46806C17.2597 3.47381 17.2638 3.48134 17.2653 3.48957C17.2668 3.4978 17.2657 3.5063 17.2621 3.51385H17.2134C15.2641 3.09744 12.3234 4.76917 12.0436 4.93635C12.0379 4.94192 12.0303 4.94503 12.0223 4.94503C12.0143 4.94503 12.0067 4.94192 12.001 4.93635C11.6969 4.76917 8.76836 3.09744 6.8312 3.51385C6.80991 3.53513 6.78254 3.53209 6.78254 3.51385C6.77634 3.50668 6.77292 3.49751 6.77292 3.48802C6.77292 3.47853 6.77634 3.46936 6.78254 3.46218C8.35281 2.50587 10.1561 2 11.9949 2Z" fill="#F2F2F2"/>
<path d="M4.9579 4.90291L5.00352 4.86948C5.17078 4.78437 6.20778 4.45914 9.24885 7.49561C9.25391 7.49954 9.25793 7.50464 9.26058 7.51046C9.26323 7.51628 9.26442 7.52266 9.26406 7.52905C9.26638 7.53802 9.26638 7.54743 9.26406 7.55641C7.25087 9.95154 3.34917 15.678 4.09728 18.0214C4.11552 18.0427 4.11552 18.0731 4.09728 18.0731C4.08834 18.0776 4.07803 18.0785 4.06844 18.0757C4.05884 18.0729 4.05068 18.0665 4.04558 18.0579C2.57463 16.1279 1.8561 13.7291 2.02396 11.3088C2.19181 8.88838 3.2346 6.61161 4.9579 4.90291Z" fill="#F2F2F2"/>
<path d="M14.7495 7.51233C14.7495 7.50656 14.7507 7.50085 14.7532 7.49561C17.8156 4.45914 18.8434 4.78437 18.9985 4.86948L19.0411 4.90291C20.765 6.61127 21.8082 8.88813 21.9761 11.3087C22.1439 13.7292 21.425 16.1282 19.9534 18.0579C19.9483 18.0665 19.9402 18.0729 19.9306 18.0757C19.921 18.0785 19.9107 18.0776 19.9017 18.0731V18.0214C20.665 15.678 16.7633 9.95154 14.7532 7.55641C14.7509 7.54743 14.7509 7.53802 14.7532 7.52905C14.7507 7.52382 14.7495 7.51811 14.7495 7.51233Z" fill="#F2F2F2"/>
</svg>
