<svg width="24" height="24" viewBox="0 0 24 24" fill="none" xmlns="http://www.w3.org/2000/svg">
<path d="M15.9034 1C15.9908 2.16111 15.6297 3.31117 14.8968 4.2059C14.5459 4.64981 14.1005 5.00695 13.5941 5.2504C13.0878 5.49386 12.5338 5.6173 11.9737 5.61147C11.938 5.05308 12.0108 4.49302 12.188 3.96334C12.3653 3.4336 12.6434 2.94456 13.0066 2.52424C13.7494 1.66383 14.7837 1.11963 15.9034 1Z" fill="#F2F2F2"/>
<path d="M17.9457 9.45109C17.5735 10.1178 17.3733 10.8694 17.3636 11.636C17.3645 12.4983 17.615 13.3413 18.0838 14.0597C18.5527 14.7782 19.2191 15.3405 20 15.6764C19.693 16.6907 19.2302 17.6493 18.6287 18.5167C17.821 19.7454 16.9741 20.9459 15.6299 20.9681C14.9907 20.9831 14.5592 20.7961 14.1095 20.6013C13.6404 20.3981 13.1517 20.1864 12.3869 20.1864C11.5757 20.1864 11.0651 20.4049 10.5725 20.6157C10.1469 20.7979 9.73491 20.9743 9.15426 20.9988C7.87412 21.047 6.89582 19.6872 6.05874 18.47C4.38563 15.9842 3.08278 11.4645 4.82942 8.3892C5.23263 7.65233 5.81665 7.0343 6.52457 6.59521C7.2325 6.15617 8.0402 5.91109 8.86895 5.88385C9.59496 5.86866 10.2916 6.15326 10.9024 6.40271C11.3695 6.59353 11.7864 6.76383 12.1278 6.76383C12.4279 6.76383 12.8331 6.60025 13.3055 6.40966C14.0495 6.10936 14.9597 5.74191 15.8874 5.84096C16.5983 5.86355 17.2942 6.05448 17.92 6.39845C18.5457 6.74247 19.0839 7.23011 19.4918 7.82263C18.8497 8.22417 18.3177 8.78434 17.9457 9.45109Z" fill="#F2F2F2"/>
</svg>
