<svg width="32" height="32" viewBox="0 0 32 32" fill="none" xmlns="http://www.w3.org/2000/svg">
<path d="M5.71335 9.69199C5.72872 9.53894 5.70775 9.38443 5.65214 9.24102C5.59654 9.0976 5.50787 8.96934 5.39335 8.86666L3.03335 6.02266V5.59599H10.364L16.0307 18.0227L21.012 5.59599H28V6.02132L25.98 7.95599C25.8955 8.02184 25.8301 8.10912 25.7907 8.20877C25.7513 8.30842 25.7393 8.41681 25.756 8.52266V22.744C25.7391 22.8499 25.7509 22.9583 25.7903 23.058C25.8297 23.1577 25.8953 23.245 25.98 23.3107L27.952 25.2453V25.6707H18.0373V25.2453L20.076 23.2627C20.2787 23.0627 20.2787 23.0027 20.2787 22.6973V11.2013L14.6 25.624H13.8333L7.22268 11.2013V20.8667C7.16801 21.2733 7.30268 21.6827 7.58935 21.9773L10.2453 25.2V25.6253H2.71468V25.2L5.37068 21.9773C5.51041 21.8317 5.61416 21.6554 5.67366 21.4626C5.73316 21.2698 5.74675 21.0657 5.71335 20.8667V9.69199Z" fill="#F2F2F2"/>
</svg>
